{"title":"Support Your Local Gunfighter (1971) 720p AC3 (5.1) HDTV","uid":10567191,"size":2169385594,"categoryP":"video","categoryS":"hd___movies","magnet":"?xt=urn:btih:c28b30dafa8067340d0dd03fe4853da4b533826b&amp;dn=Support+Your+Local+Gunfighter+%281971%29+720p+AC3+%285.1%29+HDTV&amp;tr=udp%3A%2F%2Ftracker.openbittorrent.com%3A80&amp;tr=udp%3A%2F%2Fopen.demonii.com%3A1337&amp;tr=udp%3A%2F%2Ftracker.coppersurfer.tk%3A6969&amp;tr=udp%3A%2F%2Fexodus.desync.com%3A6969","seeders":5,"leechers":1,"uploader":"nabsltd","files":2,"time":1405537180,"description":"This is my own rip.\n\nThere is a small logo for 10 seconds every 30 minutes.\n\nGeneral\nUnique ID                                : 208874077243738717893118246989381698715 (0x9D23AF1A6D5C360B902F3855ADCF049B)\nFormat                                   : Matroska\nFormat version                           : Version 4 / Version 2\nFile size                                : 2.00 GiB\nDuration                                 : 1h 32mn\nOverall bit rate mode                    : Variable\nOverall bit rate                         : 3 101 Kbps\nEncoded date                             : UTC 2014-07-16 03:44:36\nWriting application                      : mkvmerge v7.0.0 ('Where We Going') 64bit built on Jun  9 2014 15:16:27\nWriting library                          : libebml v1.3.0 + libmatroska v1.4.1\nDURATION                                 : 01:32:21.248000000\nNUMBER_OF_FRAMES                         : 173164\nNUMBER_OF_BYTES                          : 265979904\n_STATISTICS_WRITING_APP                  : mkvmerge v7.0.0 ('Where We Going') 64bit built on Jun  9 2014 15:16:27\n_STATISTICS_WRITING_DATE_UTC             : 2014-07-16 03:44:36\n_STATISTICS_TAGS                         : BPS DURATION NUMBER_OF_FRAMES NUMBER_OF_BYTES\n\nVideo\nID                                       : 1\nFormat                                   : AVC\nFormat/Info                              : Advanced Video Codec\nFormat profile                           : &lt;a class=&quot;__cf_email__&quot; href=&quot;/cdn-cgi/l/email-protection&quot; data-cfemail=&quot;d199b8b6b9919de5ffe0&quot;&gt;[email&amp;#160;protected]&lt;/a&gt;&lt;script cf-hash='f9e31' type=&quot;text/javascript&quot;&gt;\n/* &lt;![CDATA[ */!function(){try{var t=&quot;currentScript&quot;in document?document.currentScript:function(){for(var t=document.getElementsByTagName(&quot;script&quot;),e=t.length;e--;)if(t[e].getAttribute(&quot;cf-hash&quot;))return t[e]}();if(t&amp;&amp;t.previousSibling){var e,r,n,i,c=t.previousSibling,a=c.getAttribute(&quot;data-cfemail&quot;);if(a){for(e=&quot;&quot;,r=parseInt(a.substr(0,2),16),n=2;a.length-n;n+=2)i=parseInt(a.substr(n,2),16)^r,e+=String.fromCharCode(i);e=document.createTextNode(e),c.parentNode.replaceChild(e,c)}}}catch(u){}}();/* ]]&gt; */&lt;/script&gt;\nFormat settings, CABAC                   : Yes\nFormat settings, ReFrames                : 7 frames\nCodec ID                                 : V_MPEG4/ISO/AVC\nDuration                                 : 1h 32mn\nBit rate mode                            : Variable\nBit rate                                 : 2 655 Kbps\nMaximum bit rate                         : 10.1 Mbps\nWidth                                    : 1 280 pixels\nHeight                                   : 692 pixels\nDisplay aspect ratio                     : 1.85:1\nFrame rate mode                          : Constant\nFrame rate                               : 23.976 fps\nColor space                              : YUV\nChroma subsampling                       : 4:2:0\nBit depth                                : 8 bits\nScan type                                : Progressive\nBits/(Pixel*Frame)                       : 0.125\nStream size                              : 1.71 GiB (86%)\nWriting library                          : x264 core 135 r2345 f0c1c53\nLanguage                                 : English\nDefault                                  : Yes\nForced                                   : No\nColor primaries                          : BT.709\nTransfer characteristics                 : BT.709\nMatrix coefficients                      : BT.709\n\nAudio\nID                                       : 2\nFormat                                   : AC-3\nFormat/Info                              : Audio Coding 3\nMode extension                           : CM (complete main)\nFormat settings, Endianness              : Big\nCodec ID                                 : A_AC3\nDuration                                 : 1h 32mn\nBit rate mode                            : Constant\nBit rate                                 : 384 Kbps\nChannel(s)                               : 6 channels\nChannel positions                        : Front: L C R, Side: L R, LFE\nSampling rate                            : 48.0 KHz\nBit depth                                : 16 bits\nCompression mode                         : Lossy\nStream size                              : 254 MiB (12%)\nLanguage                                 : English\nDefault                                  : Yes\nForced                                   : No\n\nMenu\n00:00:00.000                             : :Logo/Main Title\n00:02:28.023                             : :Patience in Purgatory\n00:07:42.462                             : :Best Hotel in Town\n00:16:23.649                             : :Doc's Hypocritic Oath\n00:22:23.531                             : :The Lucky 23\n00:29:36.525                             : :Swifty the Iron Man\n00:36:42.617                             : :Ladies of the Evening\n00:42:32.884                             : :Slow Swifty\n00:49:39.457                             : :Miner Trouble\n00:55:55.833                             : :&quot;Go West, Young Man&quot;\n01:01:31.877                             : :Napoleon Complex\n01:04:24.569                             : :Love Hurts\n01:09:22.764                             : :Having a Blast\n01:16:57.321                             : :Killer Hits Town\n01:25:06.476                             : :The Mother Lode\n01:30:54.532                             : :End Credits\n","torrent":{"xt":"urn:btih:c28b30dafa8067340d0dd03fe4853da4b533826b","amp;dn":"Support+Your+Local+Gunfighter+%281971%29+720p+AC3+%285.1%29+HDTV","amp;tr":["udp%3A%2F%2Ftracker.openbittorrent.com%3A80","udp%3A%2F%2Fopen.demonii.com%3A1337","udp%3A%2F%2Ftracker.coppersurfer.tk%3A6969","udp%3A%2F%2Fexodus.desync.com%3A6969"],"infoHash":"c28b30dafa8067340d0dd03fe4853da4b533826b","infoHashBuffer":{"type":"Buffer","data":[194,139,48,218,250,128,103,52,13,13,208,63,228,133,61,164,181,51,130,107]},"announce":[],"urlList":[]}}